<?xml version="1.0" encoding="utf-8"?>
<!DOCTYPE svg PUBLIC "-//W3C//DTD SVG 1.1//EN" "http://www.w3.org/Graphics/SVG/1.1/DTD/svg11.dtd">
<svg version="1.1" id="Layer_1" xmlns="http://www.w3.org/2000/svg" xmlns:xlink="http://www.w3.org/1999/xlink" x="0px" y="0px"
	 width="336.109px" height="90.372px" viewBox="0 0 336.109 90.372" enable-background="new 0 0 336.109 90.372"
	 xml:space="preserve">
<g opacity="0.9">
	<g>
		<path fill="#272361" d="M118.713,64.045c5.674,7.188,14.881,11.764,23.934,8.42c2.128-0.785,3.921-2.238,5.518-3.805
			c0.896-0.881,1.602-1.937,2.302-2.97c1.031-1.521,0.645-3.286,2.235-1.181c3.215,4.253,7.895,7.033,13.046,8.184
			c4.691,1.047,9.615,0.008,13.932-1.895c2.207-0.973,4.176-2.406,6.012-3.949c1.341-1.126,1.173-2.168,2.742-0.821
			c0.903,0.776,1.854,1.481,2.824,2.171c9.014,6.385,22.202,2.166,27.456-6.775c0.737-1.254-0.718-3.777,0-5
			c-5.266,8.961-17.219,12.502-26.534,7.359c-1.758-0.97-4.119-4.263-5.602-2.755c-1.691,1.724-3.73,3.063-5.827,4.236
			c-4.196,2.349-9.084,3.116-13.819,2.62c-5.231-0.547-9.746-3.516-13.276-7.248c-1.196-1.266-1.35-3.359-2.507-1.102
			c-0.593,1.157-1.383,2.192-2.177,3.215c-1.419,1.828-3.322,3.184-5.337,4.27c-8.827,4.756-19.368-0.939-24.921-7.977
			C119.509,60.053,117.889,63,118.713,64.045L118.713,64.045z"/>
	</g>
</g>
</svg>
