<?xml version="1.0" encoding="utf-8"?>
<!DOCTYPE svg PUBLIC "-//W3C//DTD SVG 1.1//EN" "http://www.w3.org/Graphics/SVG/1.1/DTD/svg11.dtd">
<svg version="1.1" id="Layer_1" xmlns="http://www.w3.org/2000/svg" xmlns:xlink="http://www.w3.org/1999/xlink" x="0px" y="0px"
	 width="14.336px" height="14.326px" viewBox="0 0 14.336 14.326" enable-background="new 0 0 14.336 14.326" xml:space="preserve">
<g>
	<path fill="#F04C23" d="M14.336,7.158c0,0.963-0.179,1.876-0.537,2.74c-0.358,0.862-0.879,1.639-1.562,2.328
		c-0.677,0.678-1.45,1.197-2.319,1.559s-1.782,0.541-2.739,0.541c-0.97,0-1.89-0.18-2.759-0.541S2.776,12.904,2.1,12.226
		c-0.684-0.689-1.204-1.466-1.562-2.328C0.179,9.035,0,8.122,0,7.158C0,6.201,0.179,5.29,0.537,4.424S1.416,2.783,2.1,2.1
		c0.677-0.677,1.45-1.196,2.319-1.558S6.201,0,7.158,0c0.964,0,1.877,0.179,2.739,0.537S11.54,1.416,12.236,2.1
		c0.684,0.684,1.204,1.458,1.562,2.324S14.336,6.201,14.336,7.158z"/>
</g>
</svg>
