<?xml version="1.0" encoding="utf-8"?>
<!DOCTYPE svg PUBLIC "-//W3C//DTD SVG 1.1//EN" "http://www.w3.org/Graphics/SVG/1.1/DTD/svg11.dtd">
<svg version="1.1" id="Layer_1" xmlns="http://www.w3.org/2000/svg" xmlns:xlink="http://www.w3.org/1999/xlink" x="0px" y="0px"
	 width="273.346px" height="21.733px" viewBox="0 0 273.346 21.733" enable-background="new 0 0 273.346 21.733"
	 xml:space="preserve">
<g opacity="0.9" id="wave-med">
	<g>
		<path fill="#F6F7F3" d="M0.041,17.456c11.88,0.483,20.037-3.405,27.171-12.905c-0.596,0.793,3.834,4.934,4.387,5.431
			c1.866,1.68,4.128,2.89,6.378,3.96c4.885,2.324,10.512,3.219,15.876,2.773c4.293-0.355,7.399-2.842,10.617-5.484
			c0.819-0.672,1.123-1.518,1.981-0.817c2.007,1.638,4.183,3.031,6.576,4.027c5.298,2.205,12.6,2.979,18.303,3.147
			c5.445,0.16,11.002-1.663,16.058-3.485c3.423-1.234,6.765-2.73,10.014-4.367c1.458-0.734,2.757,0.519,4.22,1.159
			c7.977,3.493,17.955,6.397,26.375,2.89c1.038-0.433,1.946-1.098,2.841-1.763c-0.06,0.044,2.333,1.936,2.492,2.052
			c1.89,1.372,4.109,2.258,6.299,3.019c5.182,1.801,10.912,1.918,16.266,0.968c2.436-0.433,4.744-1.336,6.938-2.45
			c1.608-0.815,4.189-3.994,5.475-2.94c3.889,3.188,9.064,4.735,13.898,5.732c6.181,1.274,12.694,1.136,18.835-0.251
			c2.595-0.585,5.053-1.609,7.356-2.92c1.208-0.687,2.264-1.587,3.272-2.53c-0.262,0.245,3.536,3.798,3.888,4.106
			c11.024,9.688,27.33,3.34,37.547-4.106c0.817-0.596-0.769-4.44,0-5c-9.116,6.644-20.795,11.474-31.986,7.407
			c-2.477-0.899-4.626-2.479-6.585-4.201c-1.078-0.948-1.974-2.087-2.863-3.207c0.105,0.133-2.216,1.839-2.38,1.958
			c-4.078,2.957-9.434,3.986-14.335,4.455c-5.083,0.485-10.255-0.087-15.204-1.253c-2.341-0.552-4.595-1.397-6.784-2.38
			c-1.017-0.457-1.975-1.025-2.928-1.599c-1.43-0.859-2.005-2.377-3.354-1.024c-7.312,7.334-20.395,6.933-29.316,3.396
			c-2.109-0.836-4.015-2.075-5.759-3.509c-1.264-1.039-3.924,1.229-5.693,1.82c-4.736,1.58-10.183,0.678-14.904-0.447
			c-3.669-0.875-7.234-2.24-10.667-3.788c-2.075-0.935-1.896-1.107-3.926-0.103c-8.274,4.097-18.006,8.041-27.396,7.229
			c-5.88-0.508-12.909-1.311-18.202-4.043c-1.705-0.88-3.274-2.103-4.756-3.312c-0.331-0.27-2.748,2.067-3.108,2.355
			c-9.503,7.591-23.629,4.488-32.256-3.281c-0.878-0.791-1.601-1.724-2.311-2.66c-1.668-2.198-1.153-1.938-2.963,0.353
			c-2.083,2.636-4.519,4.931-7.291,6.823c-5.29,3.612-11.906,4.018-18.096,3.766C0.071,12.457-0.064,17.452,0.041,17.456
			L0.041,17.456z"/>
	</g>
</g>
</svg>
