<?xml version="1.0" encoding="utf-8"?>
<!DOCTYPE svg PUBLIC "-//W3C//DTD SVG 1.1//EN" "http://www.w3.org/Graphics/SVG/1.1/DTD/svg11.dtd">
<svg version="1.1" id="Layer_1" xmlns="http://www.w3.org/2000/svg" xmlns:xlink="http://www.w3.org/1999/xlink" x="0px" y="0px"
	 width="10.035px" height="10.028px" viewBox="0 0 10.035 10.028" enable-background="new 0 0 10.035 10.028" xml:space="preserve">
<g id="circle-sm">
	<path fill="#272361" d="M10.035,5.011c0,0.675-0.125,1.313-0.376,1.917C9.408,7.532,9.044,8.075,8.565,8.559
		c-0.474,0.474-1.015,0.838-1.624,1.09c-0.607,0.254-1.247,0.38-1.917,0.38c-0.679,0-1.323-0.126-1.931-0.38
		c-0.609-0.252-1.15-0.616-1.624-1.09C0.991,8.075,0.627,7.532,0.376,6.928C0.125,6.324,0,5.686,0,5.011
		c0-0.67,0.125-1.308,0.376-1.914S0.991,1.948,1.47,1.47c0.474-0.474,1.015-0.837,1.624-1.091C3.701,0.127,4.341,0,5.011,0
		c0.675,0,1.313,0.125,1.917,0.376c0.604,0.251,1.15,0.615,1.638,1.094C9.044,1.948,9.408,2.49,9.659,3.097
		S10.035,4.341,10.035,5.011z"/>
</g>
</svg>
