<?xml version="1.0" encoding="utf-8"?>
<!DOCTYPE svg PUBLIC "-//W3C//DTD SVG 1.1//EN" "http://www.w3.org/Graphics/SVG/1.1/DTD/svg11.dtd">
<svg version="1.1" id="Layer_1" xmlns="http://www.w3.org/2000/svg" xmlns:xlink="http://www.w3.org/1999/xlink" x="0px" y="0px"
	 width="363.711px" height="27.544px" viewBox="124.16 376.914 363.711 27.544"
	 enable-background="new 124.16 376.914 363.711 27.544" xml:space="preserve">
<g id="wave-lg" opacity="0.9">
	<g>
		<path fill="#272361" d="M124.334,381.914c2.315,5.538,5.522,10.434,10.002,14.46c5.052,4.54,11.08,5.511,17.634,5.008
			c12.83-0.983,23.808-9.538,32.398-18.451c1.45-1.504,1.337-0.609,2.607,0.656c0.85,0.848,1.737,1.658,2.623,2.468
			c1.819,1.664,3.744,3.208,5.697,4.71c4.292,3.302,8.949,6.113,13.811,8.486c8.485,4.142,18.256,6.555,27.618,4.406
			c4.296-0.986,8.096-3.318,11.314-6.269c1.83-1.677,3.31-3.702,4.675-5.761c0.763-1.151,1.396-2.385,2.03-3.609
			c-0.169,0.327,2.366,2.771,2.65,3.07c6.28,6.588,15.324,10.25,24.116,11.894c9.003,1.684,18.627,0.765,26.862-3.336
			c3.821-1.903,7.059-4.753,9.677-8.097c0.68-0.868,1.25-1.812,1.819-2.753c0.906-1.498,0.485-2.771,1.966-0.771
			c1.987,2.685,4.385,5.031,6.947,7.159c11.786,9.784,28.237,9.457,41.123,2.177c3.157-1.784,5.982-4.104,8.567-6.632
			c1.458-1.426,2.48,0.542,3.876,1.685c1.507,1.234,3.099,2.344,4.752,3.369c6.421,3.977,14.84,4.241,22.073,2.897
			c7.485-1.389,12.775-8.538,18.438-12.998c1.519-1.196,2.451-2.475,3.953-0.95c1.508,1.531,3.013,3.062,4.555,4.559
			c2.411,2.339,5.004,4.411,7.946,6.04c6.916,3.832,16.439,3.957,23.895,1.969c7.24-1.932,13.059-7.852,19.707-11.122
			c0.69-0.339-0.629-4.69,0-5c-4.72,2.322-8.864,5.415-13.3,8.2c-5.165,3.242-10.852,4.123-16.863,4.039
			c-11.327-0.159-18.378-5.987-25.938-13.685c-1.776-1.809-4.185,1.098-5.859,2.498c-1.953,1.632-3.777,3.423-5.677,5.116
			c-4.523,4.033-9.055,6.359-15.123,6.837c-5.088,0.401-10.157,0.01-14.912-1.916c-2.057-0.833-3.926-2.092-5.723-3.373
			c-1.005-0.716-1.954-1.509-2.907-2.29c-2.064-1.692-1.829-1.914-3.755-0.03c-15.854,15.506-40.588,14.435-54.84-2.372
			c-0.932-1.098-1.367-3.369-2.355-1.394c-0.499,0.996-1.113,1.927-1.726,2.854c-1.187,1.792-2.68,3.356-4.246,4.813
			c-3.376,3.142-7.646,5.178-12.002,6.554c-8.87,2.803-18.719,2.007-27.505-0.655c-6.225-1.886-12.036-5.149-16.806-9.567
			c-0.999-0.925-1.893-1.954-2.765-2.997c-0.548-1.201-0.972-1.045-1.271,0.465c-0.619,1.196-1.359,2.322-2.102,3.442
			c-1.97,2.972-4.559,5.46-7.467,7.496c-11.656,8.16-27.342,3.396-38.729-2.654c-6.567-3.489-12.559-8.062-17.963-13.146
			c-1.381-1.299-1.914-3.136-3.462-1.485c-1.65,1.759-3.398,3.422-5.179,5.048c-3.366,3.074-7.069,5.735-10.998,8.038
			c-7.685,4.503-17.857,7.194-26.604,4.603c-8.365-2.478-14.083-11.12-17.253-18.705
			C124.921,378.319,123.736,380.482,124.334,381.914L124.334,381.914z"/>
	</g>
</g>
</svg>
