<svg xmlns="http://www.w3.org/2000/svg" width="336.109" height="90.372" viewBox="0 0 336.109 90.372"><circle cx="23.713" cy="23.031" r="15" fill="none" stroke="#B4AFA9" stroke-width="2"/><path fill="#272361" d="M118.713,64.045c5.674,7.188,14.881,11.764,23.934,8.42c2.128-0.785,3.921-2.238,5.518-3.805 c0.896-0.88,1.602-1.936,2.302-2.969c1.031-1.521,0.645-3.286,2.235-1.181c3.215,4.253,7.895,7.034,13.046,8.184 c4.691,1.047,9.615,0.007,13.931-1.894c2.207-0.973,4.177-2.407,6.013-3.95c1.34-1.126,1.172-2.168,2.741-0.821 c0.904,0.776,1.854,1.482,2.825,2.171c9.014,6.385,22.202,2.165,27.456-6.775c0.737-1.255-0.718-3.778,0-5 c-5.266,8.96-17.219,12.501-26.535,7.359c-1.757-0.97-4.118-4.263-5.601-2.755c-1.692,1.724-3.731,3.063-5.827,4.236 c-4.196,2.349-9.084,3.117-13.819,2.621c-5.231-0.547-9.746-3.517-13.276-7.249c-1.196-1.265-1.35-3.359-2.507-1.102 c-0.593,1.158-1.383,2.193-2.177,3.216c-1.419,1.827-3.322,3.183-5.337,4.269c-8.827,4.756-19.368-0.94-24.921-7.976 C119.509,60.053,117.889,63,118.713,64.045L118.713,64.045z" opacity=".9"/></svg>