<svg xmlns="http://www.w3.org/2000/svg" width="12.902" height="12.893" viewBox="0 0 12.902 12.893"><path fill="#B4AFA9" d="M12.902 6.442c0 0.867-0.161 1.689-0.483 2.465s-0.791 1.476-1.406 2.1 c-0.609 0.609-1.306 1.076-2.087 1.401c-0.783 0.325-1.604 0.487-2.466 0.487c-0.873 0-1.7-0.162-2.483-0.487 c-0.781-0.325-1.478-0.792-2.087-1.401c-0.615-0.621-1.084-1.32-1.406-2.097S0 7.3 0 6.442c0-0.861 0.161-1.682 0.483-2.461 S1.274 2.5 1.9 1.89C2.499 1.3 3.2 0.8 4 0.488C4.76 0.2 5.6 0 6.4 0C7.31 0 8.1 0.2 8.9 0.5 c0.775 0.3 1.5 0.8 2.1 1.406c0.615 0.6 1.1 1.3 1.4 2.092S12.902 5.6 12.9 6.442z"/></svg>