<svg xmlns="http://www.w3.org/2000/svg" width="10.035" height="10.028" viewBox="0 0 10.035 10.028"><path fill="#272361" d="M10.035,5.01c0,0.675-0.125,1.314-0.376,1.918S9.044,8.076,8.565,8.559 c-0.474,0.474-1.015,0.837-1.624,1.09c-0.607,0.253-1.247,0.379-1.917,0.379c-0.679,0-1.323-0.126-1.931-0.379 c-0.609-0.253-1.15-0.616-1.624-1.09C0.991,8.076,0.627,7.532,0.376,6.928S0,5.685,0,5.01c0-0.669,0.125-1.308,0.376-1.914 S0.991,1.948,1.47,1.47c0.474-0.474,1.015-0.837,1.624-1.09C3.701,0.126,4.341,0,5.011,0c0.675,0,1.313,0.125,1.917,0.376 c0.604,0.25,1.15,0.615,1.638,1.094c0.479,0.479,0.843,1.021,1.094,1.627S10.035,4.341,10.035,5.01z"/></svg>