<svg xmlns="http://www.w3.org/2000/svg" width="363.712" height="27.646" viewBox="0 0 363.712 27.646"><path fill="#272361" d="M363.538,0c-2.315,5.538-5.522,10.434-10.002,14.46c-5.052,4.54-11.08,5.511-17.634,5.008 c-12.83-0.985-23.809-9.539-32.399-18.452c-1.449-1.504-1.337-0.609-2.606,0.656c-0.85,0.848-1.737,1.658-2.623,2.468 c-1.819,1.664-3.744,3.208-5.697,4.71c-4.292,3.302-8.949,6.113-13.812,8.486c-8.484,4.142-18.255,6.555-27.617,4.406 c-4.296-0.986-8.097-3.319-11.314-6.268c-1.83-1.677-3.311-3.702-4.675-5.761c-0.764-1.151-1.396-2.385-2.03-3.609 c0.17,0.327-2.365,2.771-2.649,3.07c-6.28,6.589-15.324,10.25-24.116,11.893c-9.003,1.684-18.627,0.765-26.862-3.336 c-3.822-1.903-7.06-4.752-9.677-8.096c-0.679-0.868-1.25-1.812-1.819-2.753c-0.906-1.498-0.487-2.771-1.966-0.771 c-1.987,2.685-4.385,5.031-6.947,7.159c-11.787,9.784-28.238,9.457-41.123,2.178c-3.159-1.785-5.984-4.104-8.569-6.632 c-1.457-1.426-2.48,0.542-3.875,1.685c-1.506,1.234-3.097,2.344-4.752,3.369c-6.42,3.976-14.839,4.241-22.074,2.898 C71.213,15.379,65.923,8.23,60.261,3.771c-1.518-1.196-2.452-2.475-3.953-0.95c-1.508,1.531-3.013,3.062-4.555,4.559 c-2.411,2.339-5.004,4.411-7.946,6.04c-6.917,3.832-16.441,3.957-23.895,1.968C12.673,13.456,6.855,7.536,0.206,4.266 c0.629,0.31-0.69,4.661,0,5c4.72,2.322,8.864,5.415,13.3,8.2c5.165,3.242,10.85,4.123,16.863,4.039 c11.327-0.158,18.378-5.987,25.939-13.685c1.776-1.809,4.184,1.098,5.859,2.498c1.953,1.632,3.777,3.423,5.677,5.116 c4.523,4.033,9.054,6.359,15.123,6.837c5.088,0.401,10.157,0.011,14.912-1.916c2.056-0.833,3.925-2.092,5.723-3.373 c1.004-0.716,1.954-1.509,2.907-2.29c2.064-1.692,1.83-1.914,3.755-0.03c15.852,15.506,40.587,14.435,54.838-2.372 c0.932-1.098,1.368-3.369,2.357-1.394c0.499,0.996,1.113,1.927,1.726,2.854c1.185,1.792,2.679,3.356,4.245,4.813 c3.377,3.142,7.647,5.178,12.002,6.554c8.87,2.803,18.72,2.007,27.505-0.655c6.226-1.886,12.037-5.148,16.807-9.567 c0.999-0.925,1.894-1.954,2.765-2.997c0.548-1.201,0.972-1.045,1.271,0.465c0.619,1.196,1.359,2.322,2.103,3.442 c1.97,2.972,4.559,5.459,7.466,7.496c11.657,8.16,27.343,3.396,38.729-2.654c6.566-3.489,12.559-8.062,17.963-13.146 c1.381-1.299,1.914-3.136,3.462-1.485c1.651,1.759,3.398,3.422,5.18,5.048c3.366,3.074,7.068,5.735,10.997,8.038 c7.686,4.503,17.857,7.194,26.604,4.603c8.365-2.478,14.083-11.12,17.254-18.705C364.137,3.568,362.951,1.405,363.538,0L363.538,0 z" opacity=".9"/></svg>