<svg xmlns="http://www.w3.org/2000/svg" width="100.456" height="17.346" viewBox="0 0 100.456 17.346"><path fill="#272361" d="M100.215,2.62c-5.674,7.189-14.88,11.764-23.934,8.42c-2.128-0.786-3.921-2.239-5.518-3.805 c-0.896-0.879-1.602-1.935-2.302-2.968c-1.031-1.521-0.645-3.286-2.235-1.181c-3.215,4.253-7.895,7.034-13.046,8.184 c-4.691,1.047-9.615,0.008-13.931-1.894c-2.208-0.972-4.177-2.407-6.012-3.95c-1.34-1.126-1.173-2.168-2.741-0.821 c-0.904,0.776-1.854,1.482-2.826,2.17C18.657,13.159,5.468,8.941,0.215,0c0.718,1.222-0.737,3.745,0,5 c5.265,8.961,17.219,12.5,26.535,7.359c1.757-0.97,4.119-4.262,5.601-2.754c1.693,1.724,3.732,3.062,5.828,4.235 c4.196,2.349,9.083,3.117,13.819,2.621c5.231-0.547,9.746-3.517,13.276-7.249c1.196-1.265,1.35-3.359,2.507-1.102 c0.593,1.158,1.383,2.193,2.177,3.216c1.419,1.827,3.322,3.183,5.337,4.269c8.827,4.756,19.369-0.94,24.921-7.976 C101.039,6.575,99.419,3.628,100.215,2.62L100.215,2.62z" opacity=".9"/></svg>