<svg xmlns="http://www.w3.org/2000/svg" width="110.47" height="17.161" viewBox="0 0 110.47 17.161"><path fill="#AD812C" d="M0.246,7.62c6.387,7.377,16.329,11.564,25.94,8.56c2.172-0.68,4.087-1.954,5.833-3.377 c0.939-0.766,1.717-1.707,2.488-2.633c1.26-1.514,1.383-4.182,3.067-2.151c3.716,4.483,9.021,7.221,14.669,8.295 c5.265,1.001,10.749-0.106,15.606-2.176c2.237-0.953,4.271-2.32,6.185-3.803c1.382-1.07,1.244-2.024,2.834-0.782 c1.235,0.965,2.527,1.829,3.873,2.632c9.627,5.74,23.651,1.917,29.505-7.185c0.769-1.195-0.747-3.839,0-5 c-5.91,9.188-18.639,12.201-28.55,7.689c-2.138-0.974-4.029-2.513-5.866-3.948c0.243,0.19-6.275,4.551-6.88,4.871 c-4.731,2.508-10.191,3.344-15.479,2.872C47.729,10.972,42.615,8.05,38.56,4.089c-1.239-1.21-1.416-3.145-2.596-1.042 c-0.624,1.112-1.436,2.099-2.247,3.074c-1.734,2.083-4.057,3.556-6.495,4.664C17.767,15.082,6.538,9.887,0.246,2.62 C1.054,3.554-0.594,6.649,0.246,7.62L0.246,7.62z" opacity=".9"/></svg>