<svg xmlns="http://www.w3.org/2000/svg" width="100.457" height="17.156" viewBox="118.472 56.424 100.457 17.156"><path fill="#272361" d="M118.713,64.045c5.674,7.188,14.881,11.764,23.934,8.42c2.128-0.785,3.921-2.238,5.518-3.805 c0.896-0.882,1.602-1.938,2.302-2.971c1.031-1.521,0.645-3.286,2.235-1.182c3.215,4.254,7.895,7.033,13.046,8.185 c4.691,1.048,9.615,0.009,13.932-1.896c2.207-0.973,4.176-2.405,6.012-3.948c1.342-1.126,1.174-2.168,2.742-0.821 c0.903,0.776,1.854,1.48,2.824,2.172c9.014,6.385,22.202,2.166,27.456-6.775c0.737-1.254-0.718-3.777,0-5 c-5.266,8.961-17.219,12.502-26.534,7.359c-1.758-0.971-4.119-4.264-5.602-2.756c-1.691,1.725-3.73,3.062-5.827,4.236 c-4.196,2.349-9.084,3.115-13.819,2.619c-5.231-0.547-9.746-3.516-13.276-7.248c-1.196-1.266-1.35-3.358-2.507-1.102 c-0.593,1.157-1.383,2.192-2.177,3.215c-1.419,1.828-3.322,3.185-5.337,4.271c-8.827,4.756-19.368-0.938-24.921-7.978 C119.509,60.053,117.889,63,118.713,64.045L118.713,64.045z" opacity=".9"/></svg>